<svg xmlns="http://www.w3.org/2000/svg" viewBox="0 0 45.83 54.4"><defs><style>.cls-1{fill:#211915;}</style></defs><title>e-letra</title><g id="Capa_2" data-name="Capa 2"><g id="letrae"><path id="e" class="cls-1" d="M38.81,0a7.23,7.23,0,0,0-6.1,2.6q-2,2.6-2,7.89v.26a16.84,16.84,0,0,0-6.59-1.24,18.11,18.11,0,0,0-8.57,2h-.4v-1q0-5.29-2-7.89A7.23,7.23,0,0,0,7,0,6.79,6.79,0,0,0,1.88,2,7.45,7.45,0,0,0,0,7.35q0,4.38,9,10.27-3.74,5.84-3.75,14.7,0,10.47,5.27,16.27t14.7,5.81a37.62,37.62,0,0,0,6.85-.58,31.67,31.67,0,0,0,6.76-2.17V48.07a39.43,39.43,0,0,1-7.1,2.23,36.23,36.23,0,0,1-6.51.52q-7.6,0-11.68-4.69T9.43,32.51H40.58V29.33A23.86,23.86,0,0,0,37.67,17q8.16-5.52,8.16-9.69A7.46,7.46,0,0,0,44,2,6.79,6.79,0,0,0,38.81,0ZM9.66,29a22.4,22.4,0,0,1,2.58-9.33c1.33.88,2.47,1.65,3.37,2.31a67.23,67.23,0,0,1,7.3,5.83A67.23,67.23,0,0,1,30.21,22c1.07-.78,2.46-1.72,4.14-2.81A21,21,0,0,1,36.41,29Z"/></g></g></svg>